<?xml version="1.0" encoding="utf-8"?>
<!-- Generator: Adobe Illustrator 26.0.2, SVG Export Plug-In . SVG Version: 6.00 Build 0)  -->
<svg version="1.1" id="Layer_1" xmlns="http://www.w3.org/2000/svg" xmlns:xlink="http://www.w3.org/1999/xlink" x="0px" y="0px"
	 viewBox="0 0 384 384" style="enable-background:new 0 0 384 384;" xml:space="preserve">
<path fill="#000" d="M170.6,1.4C82.2,11.2,11,83.8,1.4,172.1c-11.5,98.1,48.1,182.5,132.7,210v-45.1c0,0-7.7,2-17.3,2
	c-26.9,0-38.4-23.5-40.4-37.3c-1.9-7.8-5.8-13.7-11.5-19.6c-5.8-2-7.7-2-7.7-3.9c0-3.9,5.8-3.9,7.7-3.9c11.5,0,21.1,13.7,25,19.6
	c9.6,15.7,21.1,19.6,26.9,19.6c7.7,0,13.5-2,17.3-3.9c1.9-13.7,7.7-27.5,19.2-35.3c-44.2-9.8-76.9-35.3-76.9-78.5
	c0-21.6,9.6-43.2,23.1-58.9c-1.9-3.9-3.8-13.7-3.8-27.5c0-7.8,0-19.6,5.8-31.4c0,0,26.9,0,53.8,25.5c9.6-3.9,23.1-5.9,36.5-5.9
	s26.9,2,38.4,5.9c25-25.5,53.8-25.5,53.8-25.5c3.8,11.8,3.8,23.5,3.8,31.4c0,15.7-1.9,23.5-3.8,27.5c13.5,15.7,23.1,35.3,23.1,58.9
	c0,43.2-32.7,68.7-76.9,78.5c11.5,9.8,19.2,27.5,19.2,45.1V384C328.2,358.5,384,283.9,384,197.6C384,79.8,286-12.4,170.6,1.4z"/>
</svg>
