<?xml version="1.0" encoding="utf-8"?>
<!-- Generator: Adobe Illustrator 26.0.2, SVG Export Plug-In . SVG Version: 6.00 Build 0)  -->
<svg version="1.1" id="Layer_1" xmlns="http://www.w3.org/2000/svg" xmlns:xlink="http://www.w3.org/1999/xlink" x="0px" y="0px"
	 viewBox="0 0 120 120" style="enable-background:new 0 0 120 120;" xml:space="preserve">
<style type="text/css">
	.st0{stroke:#000000;stroke-width:1.6463;stroke-miterlimit:10;}
	.st1{fill:#FFFFFF;stroke:#000000;stroke-width:1.6463;stroke-miterlimit:10;}
	.st2{stroke:#000000;stroke-width:1.7892;stroke-miterlimit:10;}
</style>
<rect x="4.7" y="25.6" class="st0" width="14.4" height="92.6"/>
<rect x="99.7" y="25.6" class="st0" width="14.4" height="92.6"/>
<path class="st0" d="M99.7,25.8v21.8c0,0,0,0.1-0.1,0.1l-40,36.8L19.2,48.2c0,0-0.1-0.1-0.1-0.1V26.2c0-0.3,0.4-0.5,0.6-0.3
	c13.4,12.3,26.8,24.6,40.1,36.9c0.1,0.1,0.2,0.1,0.2,0c13.1-12.4,26.2-24.8,39.3-37.2C99.5,25.6,99.7,25.7,99.7,25.8z"/>
<path class="st1" d="M19.4,25.5"/>
<path class="st1" d="M99.4,25.5"/>
<rect x="4.7" y="1.8" class="st2" width="109.4" height="14.4"/>
</svg>
